# AST/ASF file generated using VICON BodyLanguage
# -----------------------------------------------
:version 1.10
:name VICON
:units
  mass 1.0
  length 0.45
  angle deg
:documentation
   .ast/.asf automatically generated from VICON data using
   VICON BodyBuilder and BodyLanguage model FoxedUp or BRILLIANT.MOD
:root
   order TX TY TZ RX RY RZ
   axis XYZ
   position 0 0 0  
   orientation 0 0 0 
:bonedata
  begin
     id 1 
     name lhipjoint
     direction 0.558404 -0.748506 0.357664 
     length 2.4234 
     axis 0 0 0  XYZ
  end
  begin
     id 2 
     name lfemur
     direction 0.34202 -0.939693 0  
     length 7.14567  
     axis 0 0 20  XYZ
    dof rx ry rz
    limits (-160.0 20.0)
           (-70.0 70.0)
           (-60.0 70.0)
  end
  begin
     id 3 
     name ltibia
     direction 0.34202 -0.939693 0   
     length 8.13956   
     axis 0 0 20   XYZ
    dof rx
    limits (-10.0 170.0)
  end
  begin
     id 4 
     name lfoot
     direction 0.0791314 -0.217412 0.972867   
     length 2.00134   
     axis -90 7.62852e-016 20   XYZ
    dof rx rz
    limits (-45.0 90.0)
           (-70.0 20.0)
  end
  begin
     id 5 
     name ltoes
     direction 1.53547e-011 -4.21922e-011 1   
     length 1.00735   
     axis -90 7.62852e-016 20   XYZ
    dof rx
    limits (-90.0 20.0)
  end
  begin
     id 6 
     name rhipjoint
     direction -0.496392 -0.78327 0.374276   
     length 2.31584  
     axis 0 0 0  XYZ 
  end
  begin
     id 7 
     name rfemur
     direction -0.34202 -0.939693 0   
     length 7.47417   
     axis 0 0 -20   XYZ
    dof rx ry rz
    limits (-160.0 20.0)
           (-70.0 70.0)
           (-70.0 60.0)
  end
  begin
     id 8 
     name rtibia
     direction -0.34202 -0.939693 0   
     length 7.69071   
     axis 0 0 -20   XYZ
    dof rx
    limits (-10.0 170.0)
 end
 begin
     id 9 
     name rfoot
     direction -0.103069 -0.28318 0.953512   
     length 2.16135  
     axis -90 -7.62852e-016 -20   XYZ
    dof rx rz
    limits (-45.0 90.0)
           (-20.0 70.0)
  end
  begin
     id 10 
     name rtoes
     direction -1.53581e-011 -4.21904e-011 1   
     length 1.07867   
     axis -90 -7.62852e-016 -20   XYZ
    dof rx
    limits (-90.0 20.0)
  end
  begin
     id 11 
     name lowerback
     direction -0.0258961 0.994776 -0.0987407   
     length 2.19412   
     axis 0 0 0   XYZ
    dof rx ry rz
    limits (-20.0 45.0)
           (-30.0 30.0)
           (-30.0 30.0)
  end
  begin
     id 12 
     name upperback
     direction 0.0402454 0.999185 0.00320666   
     length 2.18445   
     axis 0 0 0   XYZ
    dof rx ry rz
    limits (-20.0 45.0)
           (-30.0 30.0)
           (-30.0 30.0)
  end
  begin
     id 13 
     name thorax
     direction 0.0519376 0.997415 0.0496558   
     length 2.21487   
     axis 0 0 0   XYZ
    dof rx ry rz
    limits (-20.0 45.0)
           (-30.0 30.0)
           (-30.0 30.0)
  end
  begin
     id 14 
     name lowerneck
     direction -0.0921276 0.983211 0.157506   
     length 1.61201   
     axis 0 0 0   XYZ
    dof rx ry rz
    limits (-20.0 45.0)
           (-30.0 30.0)
           (-30.0 30.0)
  end
  begin
     id 15 
     name upperneck
     direction 0.0820814 0.98162 -0.172292   
     length 1.65275   
     axis 0 0 0   XYZ
    dof rx ry rz
    limits (-20.0 45.0)
           (-30.0 30.0)
           (-30.0 30.0)
  end
  begin
     id 16
     name head
     direction 0.0336554 0.996413 -0.0776455  
     length 1.66415  
     axis 0 0 0   XYZ
    dof rx ry rz
    limits (-20.0 45.0)
           (-30.0 30.0)
           (-30.0 30.0)
  end
  begin
     id 17 
     name lclavicle
     direction 0.94696 0.284418 -0.149576  
     length 3.41447  
     axis 0 0 0   XYZ
    dof ry rz
    limits (-20.0 10.0)
           (0.0 20.0)
  end
  begin
     id 18 
     name lhumerus
     direction 1 -0.000130264 -9.81312e-005   
     length 5.19964   
     axis 180 -30 -90   XYZ
    dof rx ry rz
    limits (-60.0 90.0)
           (-90.0 90.0)
           (-90.0 90.0)
  end
  begin
     id 19
     name lradius
     direction 1 -4.48961e-011 1.43854e-026   
     length 3.32189   
     axis 180 -30 -90   XYZ
    dof rx
    limits (-10.0 170.0)
  end
  begin
     id 20
     name lwrist
     direction 1 -4.48958e-011 3.1502e-026   
     length 1.66095   
     axis -1.97692e-014 90 90   XYZ
    dof ry
    limits (-180.0 0.0)
 end
  begin
     id 21 
     name lhand
     direction 1 -4.48927e-011 6.3004e-026   
     length 0.645616   
     axis -4.02019e-014 90 90   XYZ
    dof rx rz
    limits (-90.0 90.0)
           (-45.0 45.0)
  end
  begin
     id 22 
     name lfingers
     direction 1 -4.4904e-011 1.26008e-025   
     length 0.520512   
     axis -8.04039e-014 90 90   XYZ
    dof rx
    limits (0.0 90.0)
  end
  begin
     id 23
     name lthumb
     direction 0.707107 -6.34947e-011 0.707107   
     length 0.747354   
     axis -90 45 2.85299e-015   XYZ
    dof rx rz
    limits (-45.0 45.0)
           (-45.0 45.0)
  end
  begin
     id 24 
     name rclavicle
     direction -0.909391 0.383475 -0.161107   
     length 3.25176  
     axis 0 0 0   XYZ 
    dof ry rz
    limits (-10.0 20.0)
           (-20.0 0.0)
  end
  begin
     id 25 
     name rhumerus
     direction -1 -4.48965e-011 -1.81384e-027  
     length 5.6595   
     axis 180 30 90   XYZ
    dof rx ry rz
    limits (-90.0 60.0)
           (-90.0 90.0)
           (-90.0 90.0)
  end
  begin
     id 26 
     name rradius
     direction -1 -4.48996e-011 -8.09397e-027   
     length 3.37604   
     axis 180 30 90   XYZ
    dof rx
    limits (-10.0 170.0)
  end
  begin
     id 27 
     name rwrist
     direction -1 -4.48927e-011 -1.56669e-026   
     length 1.68802   
     axis 1.21142e-014 -90 -90   XYZ
    dof ry
    limits (-180.0 0.0)
  end
  begin
     id 28
     name rhand
     direction -1 -4.48912e-011 -3.13339e-026   
     length 0.824702   
     axis 1.99937e-014 -90 -90   XYZ
    dof rx rz
    limits (-90.0 90.0)
           (-45.0 45.0)
  end
  begin
     id 29
     name rfingers
     direction -1 -4.49011e-011 -6.26677e-026   
     length 0.664896   
     axis 3.99874e-014 -90 -90   XYZ
    dof rx
    limits (0.0 90.0)
  end
  begin
     id 30
     name rthumb
     direction -0.707107 -6.34931e-011 0.707107   
     length 0.954662   
     axis -90 -45 -2.85299e-015   XYZ
    dof rx rz
    limits (-45.0 45.0)
           (-45.0 45.0)
  end
:hierarchy
  begin
    root lhipjoint rhipjoint lowerback
    lhipjoint lfemur
    lfemur ltibia
    ltibia lfoot
    lfoot ltoes
    rhipjoint rfemur
    rfemur rtibia
    rtibia rfoot
    rfoot rtoes
    lowerback upperback
    upperback thorax
    thorax lowerneck lclavicle rclavicle
    lowerneck upperneck
    upperneck head
    lclavicle lhumerus
    lhumerus lradius
    lradius lwrist
    lwrist lhand lthumb
    lhand lfingers
    rclavicle rhumerus
    rhumerus rradius
    rradius rwrist
    rwrist rhand rthumb
    rhand rfingers
  end

#!OML:ASF F:\VICON\USERDATA\INSTALL\rory3\rory3.ASF
:FULLY-SPECIFIED
:DEGREES
148
root 10.7946 17.771 -18.2659 8.21281 -42.8931 -5.98226
lowerback 5.16846 -0.519392 -1.12356
upperback -0.409469 -0.647763 4.38172
thorax -3.26331 -0.277153 5.23661
lowerneck -13.4543 3.35069 -7.90377
upperneck 21.9957 4.15988 9.56467
head 8.65057 2.28092 5.05466
rclavicle 2.65378e-014 7.95139e-015
rhumerus -37.9315 -20.2527 -68.2836
rradius 33.7237
rwrist -14.6337
rhand -10.9239 17.4118
rfingers 7.12502
rthumb 15.0938 -12.0179
lclavicle 2.65378e-014 7.95139e-015
lhumerus -29.5134 19.1553 79.4155
lradius 26.7334
lwrist -10.4878
lhand 0.0524838 32.8414
lfingers 7.12502
lthumb 25.6406 61.1349
rfemur -19.7226 7.41343 19.6293
rtibia 39.6719
rfoot -18.8851 -8.03788
rtoes 10.3191
lfemur -15.1497 2.39495 -20.0651
ltibia 37.5786
lfoot -24.1822 13.138
ltoes 6.79969
149
root 10.7973 17.7714 -18.2587 8.21143 -43.077 -5.912
lowerback 5.11083 -0.382722 -1.26618
upperback -0.389726 -0.474098 4.41534
thorax -3.22639 -0.188526 5.33894
lowerneck -13.3685 3.26193 -8.18789
upperneck 22.1008 4.03259 9.8115
head 8.66797 2.22016 5.17813
rclavicle -5.36719e-014 -1.59028e-014
rhumerus -38.0625 -20.4551 -68.0486
rradius 33.6684
rwrist -14.8279
rhand -10.9299 17.2944
rfingers 7.12502
rthumb 15.0881 -12.1357
lclavicle -5.36719e-014 -1.59028e-014
lhumerus -29.3801 18.8642 79.6597
lradius 26.6806
lwrist -10.675
lhand 0.363408 32.8916
lfingers 7.12502
lthumb 25.9384 61.1419
rfemur -19.8022 7.4459 19.5075
rtibia 39.7264
rfoot -18.8546 -7.92381
rtoes 10.4922
lfemur -15.137 2.36175 -20.1982
ltibia 37.5464
lfoot -24.2262 13.3322
ltoes 10.6328
150
root 10.7992 17.7712 -18.2551 8.02344 -43.1595 -5.54606
lowerback 5.10237 -0.303029 -1.80296
upperback -0.418847 -0.396029 4.5424
thorax -3.25636 -0.137834 5.77576
lowerneck -13.2795 3.14064 -8.42963
upperneck 22.1826 3.92724 9.72932
head 8.68698 2.13869 5.18162
rclavicle -8.10048e-014 -7.95139e-015
rhumerus -38.1619 -20.3159 -67.7186
rradius 33.6266
rwrist -14.8628
rhand -11.1612 17.0828
rfingers 7.12502
rthumb 14.8652 -12.3639
lclavicle -8.10048e-014 -7.95139e-015
lhumerus -29.5063 19.0841 79.9727
lradius 26.8072
lwrist -10.8834
lhand 0.545859 33.0375
lfingers 7.12502
lthumb 26.1131 61.2621
rfemur -19.9141 7.36705 19.1633
rtibia 39.7926
rfoot -18.8926 -7.66336
rtoes 11.4976
lfemur -15.1599 2.31804 -20.5489
ltibia 37.5054
lfoot -24.2196 13.4414
ltoes 7.82959
151
root 10.8034 17.7714 -18.2488 7.9226 -43.2074 -5.32512
lowerback 5.06547 -0.318876 -2.06353
upperback -0.428262 -0.431453 4.60082
thorax -3.23951 -0.15061 5.98986
lowerneck -13.0899 3.06218 -8.55228
upperneck 22.1658 3.86919 9.56151
head 8.65453 2.07987 5.13145
rclavicle 6.59965e-014 -3.89618e-014
rhumerus -38.1958 -20.0456 -67.6311
rradius 33.5923
rwrist -15.0634
rhand -11.524 16.8942
rfingers 7.12502
rthumb 14.5157 -12.578
lclavicle 6.59965e-014 -3.89618e-014
lhumerus -29.6411 19.3978 80.0638
lradius 26.936
lwrist -10.8548
lhand 0.414324 33.0348
lfingers 7.12502
lthumb 25.9872 61.2779
rfemur -20.0105 7.21529 18.9381
rtibia 39.8529
rfoot -18.9322 -7.4426
rtoes 11.4549
lfemur -15.1801 2.26639 -20.7916
ltibia 37.4928
lfoot -24.2173 13.6107
ltoes 10.7111
152
root 10.808 17.7694 -18.2398 8.05559 -43.3319 -5.45489
lowerback 4.9902 -0.329244 -1.9297
upperback -0.415722 -0.43797 4.613
thorax -3.18404 -0.157875 5.9247
lowerneck -12.9097 3.01306 -8.63758
upperneck 22.2236 3.79898 9.56526
head 8.64565 2.03498 5.13716
rclavicle 3.73715e-014 3.57812e-014
rhumerus -38.2038 -20.0362 -67.65
rradius 33.4272
rwrist -15.1829
rhand -11.9878 16.7618
rfingers 7.12502
rthumb 14.0688 -12.742
lclavicle 3.73715e-014 3.57812e-014
lhumerus -29.7425 19.6735 79.9476
lradius 27.0829
lwrist -10.9995
lhand 0.663922 33.0326
lfingers 7.12502
lthumb 26.2261 61.2404
rfemur -20.1022 7.17046 18.9852
rtibia 39.9054
rfoot -18.9123 -7.29501
rtoes 11.0054
lfemur -15.2256 2.60019 -20.726
ltibia 37.5192
lfoot -24.2107 13.4976
ltoes 6.761
153
root 10.8116 17.7662 -18.2325 8.21403 -43.4673 -5.67762
lowerback 5.03498 -0.287597 -1.7839
upperback -0.450416 -0.371716 4.65531
thorax -3.25362 -0.125204 5.88218
lowerneck -12.8247 2.94401 -8.64448
upperneck 22.4515 3.67683 9.58946
head 8.719 1.97262 5.14318
rclavicle -5.41688e-014 4.77083e-015
rhumerus -38.3538 -20.2247 -67.5004
rradius 33.2191
rwrist -14.8896
rhand -12.0298 16.7991
rfingers 7.12502
rthumb 14.0283 -12.7075
lclavicle -5.41688e-014 4.77083e-015
lhumerus -29.8537 19.7415 79.8567
lradius 27.2095
lwrist -11.0474
lhand 1.11132 33.3598
lfingers 7.12502
lthumb 26.6544 61.5033
rfemur -20.1502 7.22435 19.1179
rtibia 39.9574
rfoot -18.8848 -7.22829
rtoes 10.9302
lfemur -15.252 2.93982 -20.5728
ltibia 37.5718
lfoot -24.246 13.3036
ltoes 9.85705
